<?xml version="1.0" encoding="UTF-8"?>
<svg id="Layer_1" xmlns="http://www.w3.org/2000/svg" version="1.1" viewBox="0 0 167.2 178.9">
  <!-- Generator: Adobe Illustrator 29.1.0, SVG Export Plug-In . SVG Version: 2.1.0 Build 142)  -->
  <defs>
    <style>
      .st0 {
        fill: #ebc94d;
      }
    </style>
  </defs>
  <path class="st0" d="M79.2,85.9c-17.8-6.2-28.1,8.8-49.7,17.8C-2.2,116.9-4.9,137.7,7.9,147.1c12.8,9.4,31.1-2.2,46.5,4h.2c15.7,5.5,21.8,26.3,37.6,27.7,15.8,1.4,27.5-16,12.4-46.8-10.3-21-8.1-39-25.6-46.2h.2Z"/>
  <path class="st0" d="M41.5,56.8c4.7,17.1-.4,33.4-11.4,36.4S6.4,84.8,1.7,67.8c-4.7-17.1.4-33.4,11.4-36.4,11-3,23.7,8.4,28.4,25.4Z"/>
  <path class="st0" d="M126.6,88.8c-14.8,9.7-21.7,25.4-15.4,34.9,6.3,9.5,23.4,9.4,38.2-.4,14.8-9.7,21.7-25.4,15.4-34.9s-23.4-9.4-38.2.4Z"/>
  <path class="st0" d="M92.2,37.4c-3.4,18.4-15.8,31.5-27.6,29.3-11.8-2.2-18.7-18.9-15.3-37.2C52.7,11.1,65.1-2,76.9.2c11.8,2.2,18.7,18.9,15.3,37.2Z"/>
  <path class="st0" d="M101.4,40.8c-9.5,16.1-8.9,34.1,1.5,40.2,10.4,6.2,26.5-1.9,36-17.9,9.5-16.1,8.9-34.1-1.5-40.2-10.4-6.2-26.5,1.9-36,17.9Z"/>
</svg>