<?xml version="1.0" encoding="UTF-8"?>
<svg id="Layer_1" xmlns="http://www.w3.org/2000/svg" version="1.1" viewBox="0 0 2599 1733">
  <!-- Generator: Adobe Illustrator 29.1.0, SVG Export Plug-In . SVG Version: 2.1.0 Build 142)  -->
  <defs>
    <style>
      .st0, .st1 {
        opacity: .7;
      }

      .st2, .st1 {
        fill: #f7f7f7;
      }
    </style>
  </defs>
  <g class="st0">
    <path class="st2" d="M2301,863.5c-14.6-11.9-29.4-1.5-52.8-.4-34.3,1.5-44,20-35.2,33.3,8.8,13.2,29.9,8.7,42.3,19.8h.1q0,0,.1,0c12.8,10.6,11.3,32.2,25.7,39,14.3,6.8,31.3-5.5,27.8-39.6-2.4-23.3,5.9-39.5-8.1-52.1h0Z"/>
    <path class="st2" d="M2275.8,823.2c-1.5,17.6-11.9,31.2-23.3,30.2-11.4-1-19.4-16-17.9-33.7,1.5-17.6,11.9-31.2,23.3-30.2,11.4,1,19.4,16,17.9,33.7Z"/>
    <path class="st2" d="M2344.5,882.7c-17.2,4-29.1,16.3-26.5,27.4,2.6,11.1,18.7,16.9,35.9,12.9s29.1-16.3,26.5-27.4c-2.6-11.1-18.7-16.9-35.9-12.9Z"/>
    <path class="st2" d="M2330,822.5c-9.5,16.1-25.7,24.1-36,17.9-10.3-6.2-11-24.2-1.4-40.2,9.5-16.1,25.7-24.1,36-17.9s11,24.2,1.4,40.2Z"/>
    <path class="st2" d="M2337.4,828.9c-14.5,11.8-20.1,28.9-12.5,38.2,7.6,9.4,25.5,7.4,40-4.4,14.5-11.8,20.1-28.9,12.5-38.2s-25.5-7.4-40,4.4Z"/>
  </g>
  <g class="st0">
    <path class="st2" d="M2040.8,1413c-17.8-6.2-28.1,8.8-49.7,17.8-31.7,13.2-34.4,34-21.6,43.4s31.1-2.2,46.5,4h.2c15.7,5.5,21.8,26.3,37.6,27.7,15.8,1.4,27.5-16,12.4-46.8-10.3-21-8.1-39-25.6-46.2h.2Z"/>
    <path class="st2" d="M2003.1,1383.9c4.7,17.1-.4,33.4-11.4,36.4s-23.7-8.4-28.4-25.4c-4.7-17.1.4-33.4,11.4-36.4s23.7,8.4,28.4,25.4Z"/>
    <path class="st2" d="M2088.2,1415.9c-14.8,9.7-21.7,25.4-15.4,34.9s23.4,9.4,38.2-.4c14.8-9.7,21.7-25.4,15.4-34.9s-23.4-9.4-38.2.4Z"/>
    <path class="st2" d="M2053.8,1364.5c-3.4,18.4-15.8,31.5-27.6,29.3-11.8-2.2-18.7-18.9-15.3-37.2,3.4-18.4,15.8-31.5,27.6-29.3,11.8,2.2,18.7,18.9,15.3,37.2Z"/>
    <path class="st2" d="M2063,1367.9c-9.5,16.1-8.9,34.1,1.5,40.2,10.4,6.2,26.5-1.9,36-17.9,9.5-16.1,8.9-34.1-1.5-40.2-10.4-6.2-26.5,1.9-36,17.9Z"/>
  </g>
  <g class="st0">
    <path class="st2" d="M582.4,1093.3c-18.7-2.4-25.7,14.3-45,27.5-28.3,19.4-26.8,40.3-12.3,46.8,14.5,6.6,30-8.5,46.4-5.6h.4c16.5,2.3,26.6,21.3,42.4,19.5,15.8-1.8,23.7-21.2,2.7-48.4-14.3-18.5-15.9-36.6-34.4-40l-.2.2Z"/>
    <path class="st2" d="M539.6,1072.4c8.1,15.8,6.4,32.8-3.8,38s-24.9-3.4-33-19.1c-8.1-15.8-6.4-32.8,3.8-38,10.2-5.2,24.9,3.4,33,19.1Z"/>
    <path class="st2" d="M629.5,1086.5c-12.5,12.5-16.1,29.2-8,37.3,8.1,8.1,24.8,4.5,37.3-8.1,12.5-12.5,16.1-29.2,8-37.3-8.1-8.1-24.8-4.5-37.3,8.1Z"/>
    <path class="st2" d="M585.3,1043.1c.4,18.7-9.1,34-21.1,34.3-12,.2-22.1-14.7-22.5-33.4-.4-18.7,9.1-34,21.1-34.3,12-.2,22.1,14.7,22.5,33.4Z"/>
    <path class="st2" d="M595,1044.6c-6.1,17.7-1.8,35.2,9.6,39.1,11.4,3.9,25.5-7.2,31.6-24.9,6.1-17.7,1.8-35.2-9.6-39.1-11.4-3.9-25.5,7.2-31.6,24.9Z"/>
  </g>
  <g class="st0">
    <path class="st2" d="M1509.7,247.9c-17.8-6.1-28,8.9-49.6,18.1-31.6,13.4-34.2,34.2-21.3,43.5,12.9,9.3,31.1-2.4,46.5,3.7h.2c15.7,5.5,21.9,26.2,37.7,27.5,15.8,1.3,27.4-16.1,12.2-46.9-10.4-21-8.3-39-25.8-46h.1Z"/>
    <path class="st2" d="M1472,219c4.8,17.1-.2,33.4-11.2,36.5s-23.8-8.2-28.6-25.3c-4.8-17.1.2-33.4,11.2-36.5,11-3.1,23.8,8.2,28.6,25.3Z"/>
    <path class="st2" d="M1557.2,250.6c-14.7,9.8-21.6,25.5-15.3,35,6.3,9.5,23.4,9.3,38.2-.5,14.7-9.8,21.6-25.5,15.3-35-6.3-9.5-23.4-9.3-38.2.5Z"/>
    <path class="st2" d="M1522.5,199.3c-3.3,18.4-15.6,31.5-27.5,29.4-11.8-2.1-18.8-18.8-15.4-37.2,3.3-18.4,15.6-31.5,27.5-29.4,11.8,2.1,18.8,18.8,15.4,37.2Z"/>
    <path class="st2" d="M1531.7,202.7c-9.5,16.1-8.7,34.1,1.7,40.2,10.4,6.1,26.5-2,35.9-18.1,9.5-16.1,8.7-34.1-1.7-40.2-10.4-6.1-26.5,2-35.9,18.1Z"/>
  </g>
  <g class="st0">
    <path class="st2" d="M392,532c-18.6-3.1-26.2,13.3-46,25.8-29,18.3-28.2,39.3-14,46.4,14.2,7.1,30.3-7.4,46.5-3.9h.4c16.4,2.9,25.8,22.3,41.7,21.1,15.8-1.2,24.4-20.3,4.4-48.2-13.6-19-14.5-37.1-32.9-41.2h-.1Z"/>
    <path class="st2" d="M350,509.5c7.5,16.1,5.2,33-5.2,37.8-10.4,4.8-24.8-4.3-32.3-20.3-7.5-16.1-5.2-33,5.2-37.8,10.4-4.8,24.8,4.3,32.3,20.3Z"/>
    <path class="st2" d="M439.3,527c-13,12.1-17.2,28.6-9.4,37,7.8,8.4,24.6,5.4,37.6-6.7,13-12.1,17.2-28.6,9.4-37-7.8-8.4-24.6-5.4-37.6,6.7Z"/>
    <path class="st2" d="M396.8,481.9c-.3,18.7-10.3,33.7-22.4,33.5-12-.2-21.5-15.5-21.2-34.2s10.3-33.7,22.4-33.5c12,.2,21.5,15.5,21.2,34.2h0Z"/>
    <path class="st2" d="M406.3,483.8c-6.7,17.4-3.1,35.1,8.1,39.4,11.2,4.3,25.8-6.3,32.5-23.7,6.7-17.4,3.1-35.1-8.1-39.4s-25.8,6.3-32.5,23.7h0Z"/>
  </g>
  <g class="st0">
    <path class="st2" d="M2032.1,380c-18.2-4.7-27.3,11-48.1,21.7-30.5,15.7-31.5,36.7-18,45s30.8-4.7,46.7.2h.2c16,4.3,23.8,24.5,39.7,24.6,15.9.2,26.1-18.1,8.6-47.7-11.9-20.1-11.2-38.3-29.2-43.9h0Z"/>
    <path class="st2" d="M1992.3,354.1c6.1,16.6,2.3,33.3-8.5,37.2-10.7,3.9-24.3-6.4-30.4-23.1-6.1-16.6-2.3-33.3,8.5-37.2,10.7-3.9,24.3,6.4,30.4,23.1Z"/>
    <path class="st2" d="M2079.7,379.2c-14,10.9-19.6,27-12.6,36s24,7.5,38-3.4,19.6-27,12.6-36-24-7.5-38,3.4Z"/>
    <path class="st2" d="M2041.2,330.6c-1.9,18.6-13.2,32.6-25.2,31.4s-20.1-17.3-18.2-35.9,13.2-32.6,25.2-31.4,20.1,17.3,18.2,35.9Z"/>
    <path class="st2" d="M2050.6,333.3c-8.2,16.8-6.1,34.7,4.7,40,10.8,5.3,26.2-4,34.5-20.8,8.2-16.8,6.1-34.7-4.7-40s-26.2,4-34.5,20.8Z"/>
  </g>
  <g class="st0">
    <path class="st2" d="M1929.6,910.4c-15.4,10.8-9.3,27.9-14.6,50.7-7.8,33.4,7.5,47.8,22.6,42.9s16.4-26.5,30.4-35.4h.2c13.7-9.4,34-2.3,44.5-14.2,10.4-12,3.1-31.6-30.7-37.5-23-4-36.4-16.3-52.4-6.3v-.2Z"/>
    <path class="st2" d="M1884,923.9c16.6,6.2,26.8,19.9,22.8,30.6-4,10.7-20.7,14.4-37.3,8.2-16.6-6.2-26.8-19.9-22.8-30.6,4-10.7,20.7-14.4,37.3-8.2Z"/>
    <path class="st2" d="M1959.7,873.7c-.8,17.7,7.9,32.4,19.3,32.9s21.3-13.4,22-31.1c.8-17.7-7.9-32.4-19.3-32.9s-21.3,13.4-22,31.1Z"/>
    <path class="st2" d="M1897.9,871.5c12.9,13.5,16.3,31.2,7.6,39.5-8.7,8.3-26.2,4.1-39.1-9.4s-16.3-31.2-7.6-39.5c8.7-8.3,26.2-4.1,39.1,9.4Z"/>
    <path class="st2" d="M1906,866.1c7.4,17.1,22.4,27.1,33.5,22.4,11-4.8,14-22.6,6.5-39.7-7.4-17.1-22.4-27.1-33.5-22.4-11,4.8-14,22.6-6.5,39.7Z"/>
  </g>
  <g class="st0">
    <path class="st2" d="M1055,848.6c-16.7,8.8-12.8,26.5-21,48.4-12,32.1,1.3,48.4,16.9,45.4s19.7-24.2,34.7-31.2h.2c14.8-7.6,34.1,2.1,45.9-8.4,11.9-10.5,7.1-31-25.6-41.1-22.3-6.9-34-20.8-51.2-12.9v-.2Z"/>
    <path class="st2" d="M1008,856.1c15.7,8.3,24.1,23.1,18.7,33.2-5.3,10.1-22.3,11.6-38,3.3s-24.1-23.1-18.7-33.2c5.3-10.1,22.3-11.6,38-3.3h0Z"/>
    <path class="st2" d="M1089.6,816c-3,17.5,3.6,33.2,14.9,35.1,11.2,2,22.8-10.6,25.9-28.1,3-17.5-3.6-33.2-14.9-35.1-11.2-2-22.8,10.6-25.9,28.1Z"/>
    <path class="st2" d="M1028.6,805.9c11.1,15.1,12.1,33,2.4,40.2-9.7,7.1-26.5.7-37.6-14.4-11.1-15.1-12.1-33-2.4-40.2,9.7-7.1,26.5-.7,37.6,14.4Z"/>
    <path class="st2" d="M1037.3,801.6c5.2,17.9,18.7,29.8,30.3,26.5,11.6-3.3,16.8-20.6,11.6-38.5-5.2-17.9-18.7-29.8-30.3-26.5-11.6,3.3-16.8,20.6-11.6,38.5Z"/>
  </g>
  <g class="st0">
    <path class="st2" d="M938.8,431.3c-14.1-12.5-29.3-2.6-52.7-2.5-34.3.1-44.8,18.3-36.5,31.8,8.3,13.6,29.6,9.9,41.5,21.5h0q0,.1,0,.2c12.3,11.1,10,32.6,24.1,40s31.5-4.3,29.4-38.5c-1.4-23.3,7.4-39.2-6-52.4h0Z"/>
    <path class="st2" d="M915.2,390c-2.2,17.6-13.2,30.7-24.5,29.3-11.3-1.4-18.7-16.8-16.6-34.4,2.2-17.6,13.2-30.7,24.5-29.3,11.3,1.4,18.7,16.8,16.6,34.4Z"/>
    <path class="st2" d="M981.6,452.2c-17.4,3.3-29.8,15.1-27.6,26.3,2.1,11.2,18,17.6,35.4,14.3,17.4-3.3,29.8-15.1,27.6-26.3-2.1-11.2-18-17.6-35.4-14.3Z"/>
    <path class="st2" d="M969.5,391.5c-10.2,15.7-26.6,23-36.7,16.5-10.1-6.6-10-24.6.2-40.2,10.2-15.7,26.6-23,36.7-16.5,10.1,6.6,10,24.6-.2,40.2Z"/>
    <path class="st2" d="M976.6,398.2c-15,11.2-21.2,28.1-14,37.7s25.2,8.4,40.1-2.8c15-11.2,21.2-28.1,14-37.7s-25.2-8.4-40.1,2.8Z"/>
  </g>
  <g class="st0">
    <path class="st2" d="M1226.8,1350.8c-9.9,16,2.4,29.3,6.5,52.4,6,33.8,25.7,41,37.6,30.5s4.6-30.8,14-44.5h0v-.2c8.8-14.1,30.4-15.5,35.3-30.6s-9.6-30.3-43-22.3c-22.7,5.4-39.9-.6-50.6,14.9l.2-.2Z"/>
    <path class="st2" d="M1190.2,1381.1c17.7-.9,32.5,7.7,33,19.1.6,11.4-13.3,21.3-31,22.2-17.7.9-32.5-7.7-33-19.1-.6-11.4,13.3-21.3,31-22.2Z"/>
    <path class="st2" d="M1240,1305.1c6.3,16.6,20,26.7,30.7,22.7s14.3-20.7,8-37.3c-6.3-16.6-20-26.7-30.7-22.7s-14.3,20.7-8,37.3Z"/>
    <path class="st2" d="M1182.3,1327.4c17.2,7.3,27.3,22.3,22.5,33.3-4.7,11.1-22.5,14.1-39.7,6.7-17.2-7.3-27.3-22.3-22.5-33.3,4.7-11.1,22.5-14.1,39.7-6.7Z"/>
    <path class="st2" d="M1187.6,1319.3c13.6,12.8,31.3,16.1,39.6,7.4,8.3-8.8,4-26.2-9.6-39.1-13.6-12.8-31.3-16.1-39.6-7.4-8.3,8.8-4,26.2,9.6,39.1Z"/>
  </g>
  <g class="st0">
    <path class="st2" d="M170.1,1541.1c-17.5-6.9-28.4,7.6-50.4,15.7-32.2,11.9-35.8,32.5-23.4,42.4,12.4,9.9,31.2-.9,46.3,5.9h.2c15.4,6.2,20.6,27.2,36.4,29.3,15.7,2.1,28.1-14.8,14.4-46.2-9.4-21.4-6.5-39.4-23.6-47.2h.1Z"/>
    <path class="st2" d="M133.8,1510.4c4,17.3-1.8,33.3-13,35.9-11.1,2.6-23.4-9.4-27.3-26.6-4-17.3,1.8-33.3,13-35.9,11.1-2.6,23.4,9.4,27.3,26.6Z"/>
    <path class="st2" d="M217.4,1546c-15.2,9.1-22.8,24.4-16.9,34.2,5.9,9.8,22.9,10.4,38.1,1.3,15.2-9.1,22.8-24.4,16.9-34.2-5.9-9.8-22.9-10.4-38.1-1.3Z"/>
    <path class="st2" d="M185.2,1493.1c-4.2,18.2-17.1,30.8-28.8,28.1-11.7-2.7-17.8-19.7-13.7-37.9,4.2-18.2,17.1-30.8,28.8-28.1,11.7,2.7,17.8,19.7,13.7,37.9Z"/>
    <path class="st2" d="M194.2,1497c-10.2,15.6-10.3,33.6-.3,40.2s26.5-.7,36.8-16.4c10.2-15.6,10.3-33.6.3-40.2s-26.5.7-36.8,16.4Z"/>
  </g>
  <path class="st1" d="M676.2,1332.8c13,10.2,32.1,10.2,46.9,2.8,14.8-7.3,25.7-20.9,33.2-35.7,19.5-38.8-10.4-98.4-58.6-75.1-33.3,16.1-54.1,82.6-21.5,108h0Z"/>
  <path class="st1" d="M923.8,1208.2c16.1,3.5,33.4-4.7,43.6-17.7,10.2-13,14.2-30,14.5-46.5.9-43.4-51.8-84.3-85.3-42.6-23.1,28.8-13.2,97.9,27.2,106.7h0Z"/>
  <path class="st1" d="M1467.9,966.6c16.4,1.7,32.7-8.3,41.4-22.3,8.7-14,10.8-31.4,9.3-47.8-3.9-43.2-60.7-78.1-89.4-32.9-19.8,31.2-2.4,98.7,38.7,103.1h0Z"/>
  <path class="st1" d="M945.7,1638.1c5.5,15.6,21.6,25.9,38,27.7,16.4,1.8,33-3.8,47.2-12.2,37.3-22.2,44.2-88.5-8.9-94.9-36.7-4.4-90.1,40.5-76.3,79.4Z"/>
  <path class="st1" d="M758.9,210.7c15.5-5.8,25.5-22.1,26.9-38.5,1.5-16.5-4.4-32.9-13.1-46.9-22.9-36.8-89.4-42.5-94.7,10.7-3.7,36.8,42.2,89.3,80.9,74.7h0Z"/>
  <path class="st1" d="M647.9,792.2c16.3,2.6,33.1-6.5,42.5-20.1,9.5-13.5,12.5-30.7,11.9-47.2-1.6-43.4-56.4-81.3-87.5-37.8-21.5,30.1-7.8,98.4,33,105.1h0Z"/>
  <path class="st1" d="M1236.7,782.6c-4,16,3.7,33.5,16.4,44.1,12.7,10.6,29.6,15,46.1,15.8,43.3,2.1,85.8-49.4,44.9-84-28.2-23.9-97.4-16-107.5,24.1h0Z"/>
  <path class="st1" d="M1156.9,114.2c-2.6,16.3,6.6,33,20.2,42.5,13.6,9.4,30.8,12.4,47.3,11.8,43.3-1.7,81.1-56.7,37.5-87.6-30.1-21.4-98.5-7.5-104.9,33.4h0Z"/>
  <path class="st1" d="M1217.7,1072.2c-3.5,16.2,4.8,33.4,17.9,43.5,13,10.2,30,14.1,46.6,14.3,43.4.7,84.1-52.2,42.2-85.5-28.9-23-97.9-12.8-106.6,27.6h0Z"/>
  <path class="st1" d="M2224.3,204.9c15.5,5.7,33.7,0,45.6-11.4,11.9-11.5,18.2-27.7,20.8-44,6.9-42.8-39.6-90.7-78.5-54-26.9,25.3-26.7,95.1,12.1,109.5h0Z"/>
  <path class="st1" d="M1214.3,425c16.2,3.3,33.3-5.2,43.3-18.4,10-13.2,13.7-30.2,13.7-46.8,0-43.4-53.2-83.4-86-41.1-22.6,29.2-11.6,98.1,29,106.2h0Z"/>
  <path class="st1" d="M148,155c5-11.1,8.7-23.7,5.1-35.3-4.5-14.8-21.1-24.3-36.4-21.8-15.2,2.5-27.6,16.2-29.6,31.5-5.7,42.7,39.2,73.7,60.9,25.6Z"/>
  <path class="st1" d="M2232,1314c11.9,2.5,25,3.3,35.6-2.7,13.4-7.6,19.2-25.9,13.4-40.2-5.8-14.3-21.8-23.4-37.1-22.1-43,3.7-63.4,54.2-11.8,65h0Z"/>
  <path class="st1" d="M1550.3,1349.8c11.6-3.6,23.4-9.3,29.8-19.6,8-13.2,4.1-32-7.9-41.7s-30.4-9.9-43.2-1.2c-35.7,24.1-29,78.2,21.3,62.6h0Z"/>
  <path class="st1" d="M334.5,269.4c5.4,10.9,12.9,21.6,24.2,26.2,14.3,5.8,32.2-1.1,39.9-14.5,7.6-13.4,4.8-31.6-5.8-42.8-29.6-31.4-81.9-16-58.3,31.1h0Z"/>
  <path class="st1" d="M706.3,491.5c4.4-11.3,7.4-24.1,3.2-35.5-5.3-14.5-22.4-23.2-37.5-19.8-15.1,3.3-26.7,17.6-27.9,33-3.4,43,43.1,71.4,62.2,22.3Z"/>
  <path class="st1" d="M386.8,1061.5c9.5-7.5,18.6-17.1,20.7-29,2.8-15.2-7.6-31.3-22.3-36.1-14.7-4.7-31.9,1.7-40.8,14.4-24.7,35.4,1,83.4,42.4,50.7h0Z"/>
  <path class="st1" d="M1610.1,964.5c5.9,10.6,13.8,21.1,25.3,25.1,14.5,5.2,32.1-2.5,39.2-16.2,7-13.7,3.5-31.8-7.6-42.6-30.9-30-82.5-12.4-56.9,33.6h0Z"/>
  <path class="st1" d="M1842.1,197.4c9-8.2,17.3-18.3,18.6-30.4,1.7-15.3-9.8-30.7-24.8-34.4s-31.7,4-39.7,17.2c-22.1,37,6.9,83.1,45.9,47.6Z"/>
  <path class="st1" d="M2138,1123.7c10.2,6.5,22.2,12,34.2,10.1,15.3-2.4,27.1-17.4,26.8-32.9-.3-15.4-12-29.6-26.9-33.9-41.5-11.8-78.5,28.2-34.1,56.6h0Z"/>
  <path class="st1" d="M1201.7,630.2c7.5-9.6,14-20.9,13.4-33.1-.9-15.4-14.7-28.7-30.1-29.8-15.4-1.2-30.7,9.1-36.3,23.5-15.7,40.2,20.5,80.9,53.1,39.4h0Z"/>
  <path class="st1" d="M2440,1647c12.1-1,24.9-3.8,33.4-12.6,10.7-11.1,11.1-30.3,1.6-42.4-9.6-12.1-27.5-16.4-41.9-10.8-40.2,15.6-45.6,69.9,6.9,65.7h0Z"/>
  <path class="st1" d="M105.9,609.3c9.1,1.4,18.1-8,16.4-17.1-1.4-7.5-11.6-17-23-7.7-9.4,7.7-3.5,23.3,6.6,24.8Z"/>
  <path class="st1" d="M2288.7,1494.5c9.2.6,17.4-9.6,14.9-18.5-2.1-7.3-13.1-15.9-23.6-5.7-8.7,8.5-1.5,23.5,8.7,24.1h0Z"/>
  <path class="st1" d="M65.3,801.2c-.6,9.2,9.4,17.5,18.3,15,7.4-2,16.1-12.9,5.9-23.5-8.4-8.8-23.5-1.7-24.2,8.5Z"/>
  <path class="st1" d="M2129.7,1645.6c4.7,8,17.6,9.2,23.6,2.1,5-5.8,6-19.7-8.4-22.8-11.9-2.5-20.4,11.8-15.2,20.6h0Z"/>
  <path class="st1" d="M508.1,118.1c7.5,5.4,19.8,1.2,22.4-7.7,2.2-7.3-2.6-20.4-16.9-17.4-11.9,2.5-13.8,19.1-5.5,25.1h0Z"/>
  <path class="st1" d="M1753.3,1146c8.2,4.1,19.7-1.9,21-11.1,1-7.6-5.7-19.8-19.4-14.5-11.4,4.3-10.6,21-1.5,25.6h0Z"/>
  <path class="st1" d="M578.8,1659.3c6.5,6.5,19.4,4.3,23.4-4,3.3-6.9.7-20.6-13.9-19.9-12.1.6-16.7,16.7-9.4,23.9h0Z"/>
  <path class="st1" d="M2482,102.5c8.9-2.4,13.4-14.6,8.1-22.3-4.3-6.3-17.5-10.9-24.2,2.2-5.5,10.8,6.2,22.7,16,20h0Z"/>
  <path class="st1" d="M1689.7,795.3c6.1,7,19,5.7,23.6-2.3,3.8-6.6,2.2-20.5-12.5-20.8-12.2-.3-17.8,15.4-11.1,23.1Z"/>
  <path class="st1" d="M592.5,314.2c6.9-6.1,5.6-19-2.4-23.6-6.6-3.8-20.5-2.1-20.8,12.6-.2,12.2,15.5,17.8,23.2,11Z"/>
  <path class="st1" d="M1644.3,608.2c9.2-1.2,15.3-12.6,11.2-20.9-3.4-6.8-15.8-13.3-24.2-1.2-7,9.9,2.9,23.4,13,22.1h0Z"/>
  <path class="st1" d="M1817.9,660.1c10.1,13.1,28.6,17.8,44.8,14.4,16.2-3.4,30.1-13.9,41-26.3,28.5-32.7,14.4-97.9-38.1-87.4-36.2,7.3-73,66.6-47.7,99.3h0Z"/>
  <path class="st1" d="M714,1611.4c10.4,12.8,29,17.2,45.1,13.4,16.1-3.8,29.8-14.6,40.4-27.3,27.7-33.4,12.2-98.2-40.1-86.5-36,8.1-71.4,68.2-45.4,100.3h0Z"/>
  <path class="st1" d="M2453.2,357.7c14.8,7.4,33.5,3.6,46.6-6.6,13.1-10.1,21-25.6,25.4-41.6,11.3-41.9-29.8-94.4-72.4-61.9-29.4,22.4-36.6,91.7.5,110.1h-.1Z"/>
  <path class="st1" d="M80.8,1033.5c.4,16.5,12.5,31.3,27.6,38.1,15.1,6.8,32.5,6.6,48.6,2.9,42.3-9.6,69.4-70.5,20.8-93-33.5-15.5-98.2,10.7-97.1,52h0Z"/>
  <path class="st1" d="M1812.4,1648.9c13.4,9.6,32.5,8.8,47,.9s24.9-22,31.7-37c17.8-39.5-14.4-97.9-61.6-72.7-32.6,17.4-50.7,84.8-17,108.8h0Z"/>
  <path class="st1" d="M907.7,1440.8c13.1,10,32.2,9.8,47,2.4,14.7-7.5,25.5-21.2,32.8-36.1,19-39-11.4-98.3-59.4-74.5-33.1,16.4-53.3,83.2-20.4,108.2h0Z"/>
  <path class="st1" d="M497.3,916.2c16.3-2.9,29-17.1,33.4-33.1,4.4-15.9,1.6-33.1-4.5-48.5-15.9-40.4-80.2-57.9-95.1-6.5-10.2,35.5,25.4,95.4,66.1,88.1h0Z"/>
  <path class="st1" d="M2453,661.2c14.8,7.3,33.5,3.4,46.5-6.8s20.9-25.7,25.2-41.7c11.2-41.9-30.2-94.2-72.7-61.6-29.3,22.5-36.2,91.9,1,110.1Z"/>
  <path class="st1" d="M2397.3,1173.5c4.9,15.8,20.6,26.7,37,29.1s33.1-2.5,47.6-10.5c38.1-20.8,47.5-86.8-5.4-95.1-36.5-5.8-91.5,37.1-79.2,76.5h0Z"/>
  <path class="st1" d="M1008.8,187.1c14.6-7.8,22.3-25.3,21.6-41.8s-8.8-32-19.3-44.7c-27.6-33.5-94.2-30.2-92.4,23.3,1.3,36.9,53.7,82.9,90.1,63.3h0Z"/>
  <path class="st1" d="M1453,591.8c16.3-3,29-17.2,33.4-33.1,4.4-15.9,1.6-33.1-4.5-48.5-15.9-40.4-80.3-57.9-95.1-6.4-10.2,35.5,25.5,95.4,66.2,88h0Z"/>
  <path class="st1" d="M1776.6,1401.8c6.2,10.4,14.5,20.6,26.1,24.3,14.7,4.7,32.1-3.5,38.7-17.4s2.5-31.9-8.9-42.3c-31.8-29.1-82.8-9.9-55.8,35.4h0Z"/>
  <path class="st1" d="M1249.5,1650.6c11.4,4.2,24.2,6.9,35.6,2.5,14.4-5.6,22.7-22.9,19.1-37.9s-18.2-26.3-33.6-27.3c-43-2.6-70.6,44.5-21.1,62.6h0Z"/>
  <path class="st1" d="M403.3,1341.5c12.1.7,25.2-.5,34.7-8,12.1-9.6,15.1-28.5,7.2-41.8s-25.1-19.9-40.1-16.3c-41.9,10.1-54.5,63.2-1.9,66.1h0Z"/>
  <path class="st1" d="M2312.5,435c10-6.9,19.6-15.9,22.5-27.7,3.7-15-5.7-31.7-20-37.4-14.4-5.6-32-.3-41.6,11.8-26.8,33.8-4.1,83.3,39.1,53.2h0Z"/>
  <path class="st1" d="M824.5,961.1c5.1-11.1,8.8-23.6,5.2-35.3-4.5-14.8-21-24.4-36.3-22-15.2,2.5-27.7,16.1-29.8,31.4-5.9,42.7,38.9,73.8,60.8,25.9h0Z"/>
  <path class="st1" d="M107,1287.9c11.8,2.9,24.9,4.2,35.6-1.5,13.7-7.2,20-25.3,14.7-39.8s-21-24.1-36.4-23.3c-43.1,2.3-65.2,52.1-14,64.6h0Z"/>
  <path class="st1" d="M256.3,832.2c12-2,24.5-6.1,32.1-15.5,9.7-12,8.3-31.1-2.3-42.4-10.6-11.2-28.8-13.8-42.7-7-38.6,19.2-39.1,73.7,12.8,64.8h0Z"/>
  <path class="st1" d="M384.4,1626.4c5.9,10.6,13.8,21.1,25.2,25.2,14.5,5.2,32.2-2.4,39.3-16.1,7.1-13.7,3.6-31.8-7.5-42.6-30.8-30.2-82.5-12.7-57,33.4h0Z"/>
  <path class="st1" d="M1509.3,1652.7c11.7,3.5,24.6,5.4,35.7.3,14-6.5,21.3-24.2,16.7-39-4.6-14.7-19.8-25.2-35.2-25.1-43.1,0-67.7,48.8-17.2,63.8h0Z"/>
  <path class="st1" d="M133.5,405c11.8-3,23.9-7.9,30.8-17.9,8.8-12.7,5.9-31.7-5.5-42.1s-29.8-11.6-43.1-3.7c-37,22.1-33.4,76.5,17.8,63.7Z"/>
  <path class="st1" d="M1745.7,422.5c6.4-10.3,11.6-22.4,9.5-34.4-2.6-15.2-17.9-26.8-33.3-26.3s-29.4,12.5-33.4,27.4c-11.1,41.7,29.5,78,57.2,33.2h0Z"/>
  <path class="st1" d="M1992.2,1211.2c9.2,0,16.6-10.8,13.5-19.5-2.6-7.2-14.2-15-23.9-4-8.1,9.1.2,23.6,10.4,23.4h0Z"/>
  <path class="st1" d="M2096.7,692c9-2,14.1-13.9,9.3-21.8-4-6.5-16.9-11.8-24.3.9-6.1,10.5,4.9,23,14.9,20.9h.1Z"/>
  <path class="st1" d="M2252,606.2c9.2,1.2,18-8.3,16.2-17.3-1.5-7.5-11.9-16.8-23.1-7.4-9.3,7.8-3.2,23.4,6.9,24.7h0Z"/>
  <path class="st1" d="M816.5,687c2,9,14,14.1,21.8,9.2,6.5-4,11.7-16.9-1-24.2-10.5-6.1-23,5-20.8,15Z"/>
  <path class="st1" d="M1685.1,81.1c4.9,7.8,17.9,8.5,23.7,1.3,4.8-6,5.3-19.9-9.2-22.5-12-2.1-19.9,12.6-14.5,21.2Z"/>
  <path class="st1" d="M2491.3,1408.3c9-2.2,13.7-14.3,8.6-22.1-4.2-6.4-17.2-11.3-24.2,1.7-5.8,10.7,5.7,22.9,15.6,20.4h0Z"/>
  <path class="st1" d="M2515.3,898c4.2,8.2,17.1,10,23.5,3.3,5.3-5.5,7-19.4-7.2-23.2-11.7-3.1-21,10.8-16.3,19.8h0Z"/>
  <path class="st1" d="M2020.1,111.5c8.1-4.4,9.7-17.3,2.9-23.5-5.6-5.2-19.5-6.6-23,7.6-2.9,11.8,11.2,20.8,20.1,15.9Z"/>
  <path class="st1" d="M1485.7,1175c8.5,3.5,19.5-3.4,20-12.7.4-7.6-7.2-19.3-20.5-13-11,5.2-9,21.8.4,25.7h0Z"/>
  <path class="st1" d="M303.3,87.9c-.6,9.2,9.5,17.4,18.4,15,7.4-2,16-13,5.8-23.6-8.4-8.8-23.5-1.6-24.2,8.6h0Z"/>
  <path class="st1" d="M556,1400.6c5.4,7.5,18.4,7.5,23.7,0,4.4-6.2,4.2-20.2-10.4-21.9-12.1-1.4-19.2,13.7-13.3,22h0Z"/>
</svg>