<?xml version="1.0" encoding="UTF-8"?>
<svg id="Isolation_Mode" xmlns="http://www.w3.org/2000/svg" version="1.1" viewBox="0 0 344.1 641.2">
  <!-- Generator: Adobe Illustrator 29.1.0, SVG Export Plug-In . SVG Version: 2.1.0 Build 142)  -->
  <defs>
    <style>
      .st0 {
        fill: #231f20;
      }

      .st1 {
        fill: none;
        stroke: #231f20;
        stroke-linecap: round;
        stroke-linejoin: round;
        stroke-width: 9.3px;
      }

      .st2 {
        opacity: .6;
      }
    </style>
  </defs>
  <g class="st2">
    <path class="st1" d="M305.7,636.5c-183.8-29.1-246-258-189.8-412.9,20-55.1,57.6-102.1,103.8-137.8"/>
    <g>
      <path class="st0" d="M234.5,614.5s44.2-71.2-20.2-172.5c-2.4,5.4-34.1,94.1,20.2,172.5Z"/>
      <path class="st0" d="M192.3,585.6s-81,21.5-159.1-69.6c5.9-.7,100-5.1,159.1,69.6Z"/>
      <path class="st0" d="M121.1,482.5S38,471.9,0,358.1c5.7,1.5,94.5,32.9,121.1,124.5Z"/>
      <path class="st0" d="M94.4,368.2S19,331.4,19.7,211.4c4.9,3.3,78.9,61.6,74.7,156.8Z"/>
      <path class="st0" d="M106.4,247.3s-62.7-55.6-29.9-171.1c3.9,4.5,59.5,80.5,29.9,171.1Z"/>
      <path class="st0" d="M145.2,161.2S109.8,89.1,177.8,0c1.8,5.4,24.2,92.7-32.6,161.2Z"/>
      <path class="st0" d="M149.9,536.5s68.3-61.9,34.3-186.3c-4.3,4.9-64.9,84.8-34.3,186.3Z"/>
      <path class="st0" d="M100.4,397.7s71.6-40.6,74.3-161.6c-5.1,3.5-74.1,57.5-74.3,161.6Z"/>
      <path class="st0" d="M168.8,150.9c20.5-14.9,44.1-25.2,68.5-32.2,0,5-.7,10.1-2.1,15-1.6,6-4.2,11.8-7,17.4-22.7,44.6-68.8,86.8-119.1,96.7.2-5.7,4-13.3,5.6-18.8,9.1-32.1,26.9-58.2,54.2-77.9Z"/>
      <path class="st0" d="M224.8,72.8c33.4-27,76.3-42.1,119.3-42.1,1,13.5-16.8,26-26.1,33-21.4,16.2-43.8,27.2-69.9,34.2-16.1,4.3-34.2,7.8-50.8,7.8-.5,0-1.1,0-1.4-.4-.4-.6,0-1.4.4-1.9,3.3-4.6,7.6-8.4,11-12.8,5.2-6.6,11-12.4,17.6-17.7Z"/>
    </g>
  </g>
</svg>